<svg xmlns="http://www.w3.org/2000/svg" viewBox="0 0 37 49"><defs><style>.cls-1{fill:none;}.cls-1,.cls-2{stroke:#606066;stroke-miterlimit:10;}.cls-2{fill:#fff;}</style></defs><g id="Layer_2" data-name="Layer 2"><g id="icons"><line class="cls-1" x1="15.74" y1="12.52" x2="27.72" y2="12.52"/><line class="cls-1" x1="15.74" y1="23.52" x2="27.72" y2="23.52"/><path class="cls-1" d="M25,3.5h8.5V32.78A13.74,13.74,0,0,1,19.75,46.5H.5V3.5H9.67"/><line class="cls-1" x1="15.74" y1="34.52" x2="27.72" y2="34.52"/><circle class="cls-1" cx="8.46" cy="34.45" r="2.14"/><circle class="cls-1" cx="8.46" cy="13.05" r="2.14"/><circle class="cls-1" cx="8.46" cy="23.75" r="2.14"/><polygon class="cls-1" points="25 5.5 9 5.5 10 0.5 24 0.5 25 5.5"/><polygon class="cls-1" points="25 5.5 9 5.5 10 0.5 24 0.5 25 5.5"/><circle class="cls-2" cx="30.5" cy="42.5" r="6"/><polyline class="cls-1" points="27.27 43.09 29.1 45.27 33.67 40.47"/></g></g></svg>