<svg xmlns="http://www.w3.org/2000/svg" viewBox="0 0 42 35"><defs><style>.cls-1{fill:none;}.cls-1,.cls-2{stroke:#606066;stroke-miterlimit:10;}.cls-2{fill:#fff;}</style></defs><g id="Layer_2" data-name="Layer 2"><g id="icons"><polyline class="cls-1" points="33.2 24.54 27.5 29.94 27.5 35"/><polyline class="cls-1" points="41.5 35 41.5 29.94 35.8 24.54"/><rect class="cls-1" x="8.1" y="12.59" width="24.8" height="4"/><rect class="cls-1" x="-0.08" y="3.08" width="10.16" height="5" transform="translate(10.58 0.58) rotate(90)"/><line class="cls-1" x1="30" y1="24.5" x2="39" y2="24.5"/><line class="cls-1" x1="34.5" y1="17.02" x2="34.5" y2="24.54"/><path class="cls-2" d="M5.34,19.5a5,5,0,0,1-2.63-.86,4.93,4.93,0,0,1-1.37-1.36A5,5,0,0,1,.5,14.34a3.53,3.53,0,0,1,.05-.56c0-.13,0-.25.06-.37a4.86,4.86,0,0,1,.94-1.95A4.92,4.92,0,0,1,5,9.54a3.38,3.38,0,0,1,.71,0,5,5,0,0,1,4.84,5.16,5.16,5.16,0,0,1-.08.7.37.37,0,0,1,0,.15,4.92,4.92,0,0,1-3.63,3.81,3.82,3.82,0,0,1-.51.11A4.44,4.44,0,0,1,5.34,19.5Z"/><path class="cls-2" d="M34.37,18.5a4,4,0,0,1-3.19-1.78,3.93,3.93,0,0,1-.68-2.34,6.08,6.08,0,0,1,.09-.76,4.13,4.13,0,0,1,3.47-3.09l.57,0a4,4,0,0,1,3.87,4.14,3.43,3.43,0,0,1-.07.56,4,4,0,0,1-3.33,3.26A3.54,3.54,0,0,1,34.37,18.5Z"/></g></g></svg>