<svg xmlns="http://www.w3.org/2000/svg" viewBox="0 0 52.5 31.5"><defs><style>.cls-1{fill:none;}.cls-1,.cls-2{stroke:#606066;stroke-miterlimit:10;}.cls-2{fill:#fff;}</style></defs><g id="Layer_2" data-name="Layer 2"><g id="icons"><line class="cls-1" x1="36.05" y1="6" x2="36.05" y2="1.86"/><line class="cls-1" x1="39.12" y1="6" x2="39.12"/><path class="cls-1" d="M34.5,14H.5c0,9.39,7,17,15.59,17H40.76c6,0,8.82-3.64,10-9"/><rect class="cls-1" x="8" y="10" width="6" height="4"/><rect class="cls-1" x="14" y="10" width="6" height="4"/><rect class="cls-1" x="11" y="6" width="6" height="4"/><line class="cls-1" x1="26" y1="14" x2="1" y2="14"/><polyline class="cls-1" points="25.5 22 52 22 52 14 44.52 14"/><line class="cls-1" x1="2.5" y1="22" x2="15" y2="22"/><path class="cls-2" d="M26,6H45v5.49A6.39,6.39,0,0,1,38.75,18H26Z"/></g></g></svg>